# xmcd
#
# Track frame offsets: 
#        150
#        20373
#        37378
#        58633
#        76285
#        97815
#        114015
#        136913
#        154980
#
# Disc length: 2339 seconds
#
# Revision: 1
# Processed by: cddbd v1.5.2PL0 Copyright (c) Steve Scherf et al.
# Submitted via: ExactAudioCopy v0.99pb3
#
DISCID=68092109
DTITLE=Gene loves Jezebel - Immigrant
DYEAR=1985
DGENRE=Post-Punk
TTITLE0=Always a flame
TTITLE1=Shame
TTITLE2=Stephen
TTITLE3=The immigrant
TTITLE4=Cow
TTITLE5=Worth waiting for
TTITLE6=The rhino plasty
TTITLE7=Deep south Wale
TTITLE8=Coal porter
EXTD=YEAR: 1985
EXTT0=
EXTT1=
EXTT2=
EXTT3=
EXTT4=
EXTT5=
EXTT6=
EXTT7=
EXTT8=
PLAYORDER=
